<?xml version="1.0" encoding="utf-8"?>
<!-- Generator: Adobe Illustrator 19.0.0, SVG Export Plug-In . SVG Version: 6.00 Build 0)  -->
<svg version="1.1" id="Layer_1" xmlns="http://www.w3.org/2000/svg" xmlns:xlink="http://www.w3.org/1999/xlink" x="0px" y="0px"
	 viewBox="0 0 2000 787.4" style="enable-background:new 0 0 2000 787.4;" xml:space="preserve">
<path id="XMLID_5_" d="M529.7,147.7L529.7,147.7c70.4,0,127.4,57,127.4,127.4v264.3c0,70.4-57,127.4-127.4,127.4h0V591
	c-29.5,61.1-110.6,90.6-168.5,91.6c-153.7,1.1-267.5-93.7-267.5-275.9c0-179,119-272.7,270.6-271.7c69.5,0,135.8,32.6,165.3,84.2
	V147.7z M222.3,406.7c0,99,68.4,158,153.7,158c202.2,0,202.2-314.8,0-314.8C290.7,249.8,222.3,307.8,222.3,406.7z"/>
<g id="XMLID_3_">
	<path id="XMLID_20_" d="M889.1,155h43.4v176.9h-43.4v-25.8c-10,20.8-37.7,30.9-57.4,31.2c-52.4,0.4-91.2-31.9-91.2-94
		c0-61,40.6-93,92.2-92.6c23.7,0,46.3,11.1,56.3,28.7V155z M784.3,243.3c0,33.7,23.3,53.8,52.4,53.8c68.9,0,68.9-107.3,0-107.3
		C807.6,189.8,784.3,209.6,784.3,243.3z"/>
	<path id="XMLID_26_" d="M1012.9,81.1v250.9h-43.4V81.1H1012.9z"/>
	<path id="XMLID_28_" d="M1088.6,259.1c2.9,21.9,21.9,37.7,52.8,37.7c16.2,0,37.3-6.1,47.4-16.5l28,27.6
		c-18.7,19.4-49.2,28.7-76.1,28.7c-61,0-97.3-37.7-97.3-94.4c0-53.8,36.6-92.6,94-92.6c59.2,0,96.2,36.6,89.4,109.5H1088.6z
		 M1184.8,222.8c-2.9-23-20.8-34.5-45.9-34.5c-23.7,0-43.1,11.5-49.5,34.5H1184.8z"/>
	<path id="XMLID_31_" d="M1369.6,155h52.4v1.4l-58.1,85.8l61.7,88.6v1.1h-52.4l-38.4-59.2l-38.4,59.2H1244v-1.1l61.7-88.6
		l-58.1-85.8V155h52.4l34.8,59.9L1369.6,155z"/>
	<path id="XMLID_34_" d="M1491.3,81.1v250.9h-43.4V81.1H1491.3z"/>
	<path id="XMLID_37_" d="M1668.6,155h43.4v176.9h-43.4v-25.8c-10,20.8-37.7,30.9-57.4,31.2c-52.4,0.4-91.2-31.9-91.2-94
		c0-61,40.6-93,92.2-92.6c23.7,0,46.3,11.1,56.3,28.7V155z M1563.8,243.3c0,33.7,23.3,53.8,52.4,53.8c68.9,0,68.9-107.3,0-107.3
		C1587.1,189.8,1563.8,209.6,1563.8,243.3z"/>
	<path id="XMLID_40_" d="M1879.2,331.9v-92.6c0-26.9-14.7-47.4-42.7-47.4c-26.9,0-45.2,19-45.2,45.9v94h-43.4V154.6h42v20.5
		c17.9-17.6,35.9-23,58.1-23c41.6,0,75,31.2,75,86.9v93H1879.2z"/>
</g>
<g id="XMLID_1_">
	<g id="XMLID_2_">
		<path id="XMLID_17_" d="M1206.3,670.6H881.5c-77.8,0-141-63.3-141-141c0-77.8,63.3-141,141-141h324.8c77.8,0,141,63.3,141,141
			C1347.4,607.3,1284.1,670.6,1206.3,670.6z M881.5,415.7c-62.8,0-113.8,51.1-113.8,113.8c0,62.8,51.1,113.8,113.8,113.8h324.8
			c62.8,0,113.8-51.1,113.8-113.8c0-62.8-51.1-113.8-113.8-113.8H881.5z"/>
	</g>
	<g id="XMLID_4_">
		<g id="XMLID_102_">
			<path id="XMLID_108_" d="M844.9,657.8V471.5h28.8v16c9-13,24.5-18.6,37.7-18.6c35.8,0,59.7,26.6,59.7,60.8
				c0,34-21.5,60.8-58.7,60.8c-12.3,0-30.4-3.8-38.7-16.5v83.7H844.9z M942.3,529.7c0-18.2-12.3-33-33-33c-20.7,0-33,14.9-33,33
				c0,18.2,13.4,33,33,33C928.9,562.7,942.3,547.9,942.3,529.7z"/>
			<path id="XMLID_106_" d="M1077.9,587.7v-60.8c0-17.7-9.7-31.1-28.1-31.1c-17.7,0-29.7,12.5-29.7,30.2v61.8h-28.5V471.2h27.6v13.4
				c11.8-11.6,23.6-15.1,38.2-15.1c27.4,0,49.3,20.5,49.3,57.1v61.1H1077.9z"/>
			<path id="XMLID_103_" d="M1214.2,571c-3.8,7.8-19.3,14.1-29.5,14.1c-36.3,0-58.9-22.2-58.9-58.5s26.4-58.9,58.9-58.9
				c9.2,0,21.5,3.5,29.5,9v-9h28.8v24.5v34.4V570c0,41.5-26.9,62.5-58.2,62.5c-30.7,0-54.2-16.7-58.5-43.1l28.1-5.4
				c1.9,13.2,14.9,21.7,30.2,21.7c14.4,0,29.5-11.1,29.5-34.7H1214.2z M1154.3,526.6c0,20.3,13.7,32.3,30.4,32.3
				c16.5,0,30.2-12.3,30.2-32.3s-13.7-32.8-30.2-32.8C1168,493.9,1154.3,506.4,1154.3,526.6z"/>
		</g>
	</g>
</g>
</svg>
