<?xml version="1.0" encoding="utf-8"?>
<!-- Generator: Adobe Illustrator 19.0.0, SVG Export Plug-In . SVG Version: 6.00 Build 0)  -->
<svg version="1.1" id="Layer_1" xmlns="http://www.w3.org/2000/svg" xmlns:xlink="http://www.w3.org/1999/xlink" x="0px" y="0px"
	 viewBox="0 0 2000 2000" style="enable-background:new 0 0 2000 2000;" xml:space="preserve">
<style type="text/css">
	.st0{fill:#010202;}
</style>
<path id="XMLID_22_" class="st0" d="M1507.5,127.9L1507.5,127.9c237.9,0,430.8,192.9,430.8,430.8v893.6
	c0,237.9-192.9,430.8-430.8,430.8h0v-256.3c-99.7,206.5-373.8,306.2-569.6,309.7c-519.8,3.6-904.3-316.9-904.3-932.8
	c0-605.2,402.3-922.1,915-918.5c235,0,459.3,110.4,559,284.8V127.9z M467.9,1003.7c0,334.7,231.4,534,519.8,534
	c683.6,0,683.6-1064.5,0-1064.5C699.4,473.2,467.9,669,467.9,1003.7z"/>
</svg>
