<?xml version="1.0" encoding="utf-8"?>
<!-- Generator: Adobe Illustrator 19.0.0, SVG Export Plug-In . SVG Version: 6.00 Build 0)  -->
<svg version="1.1" id="Layer_1" xmlns="http://www.w3.org/2000/svg" xmlns:xlink="http://www.w3.org/1999/xlink" x="0px" y="0px"
	 viewBox="0 0 2712.4 1417.2" style="enable-background:new 0 0 2712.4 1417.2;" xml:space="preserve">
<path id="XMLID_5_" d="M1540.5,82.8L1540.5,82.8c88.8,0,160.7,72,160.7,160.7V577c0,88.8-72,160.7-160.7,160.7h0v-95.7
	c-37.2,77.1-139.5,114.3-212.6,115.6c-194,1.3-337.4-118.2-337.4-348.1c0-225.8,150.1-344.1,341.4-342.7
	c87.7,0,171.4,41.2,208.6,106.3V82.8z M1152.6,409.7c0,124.9,86.4,199.3,194,199.3c255.1,0,255.1-397.2,0-397.2
	C1238.9,211.7,1152.6,284.8,1152.6,409.7z"/>
<g id="XMLID_1_">
	<g id="XMLID_3_">
		<path id="XMLID_20_" d="M295.8,1020.3H356v245h-60.1v-35.8c-13.9,28.8-52.2,42.7-79.5,43.2c-72.6,0.5-126.2-44.2-126.2-130.2
			c0-84.5,56.2-128.7,127.7-128.2c32.8,0,64.1,15.4,78,39.8V1020.3z M150.7,1142.6c0,46.7,32.3,74.5,72.6,74.5
			c95.4,0,95.4-148.6,0-148.6C183,1068.5,150.7,1095.9,150.7,1142.6z"/>
		<path id="XMLID_26_" d="M467.3,918v347.4h-60.1V918H467.3z"/>
		<path id="XMLID_28_" d="M572.1,1164.5c4,30.3,30.3,52.2,73.1,52.2c22.4,0,51.7-8.4,65.6-22.9l38.8,38.3
			c-25.8,26.8-68.1,39.8-105.4,39.8c-84.5,0-134.7-52.2-134.7-130.7c0-74.5,50.7-128.2,130.2-128.2c82,0,133.2,50.7,123.7,151.6
			H572.1z M705.3,1114.3c-4-31.8-28.8-47.7-63.6-47.7c-32.8,0-59.6,15.9-68.6,47.7H705.3z"/>
		<path id="XMLID_31_" d="M961.2,1020.3h72.6v2l-80.5,118.8l85.5,122.8v1.5h-72.6l-53.2-82l-53.2,82h-72.6v-1.5l85.5-122.8
			l-80.5-118.8v-2h72.6l48.2,83L961.2,1020.3z"/>
		<path id="XMLID_34_" d="M1129.7,918v347.4h-60.1V918H1129.7z"/>
		<path id="XMLID_37_" d="M1375.2,1020.3h60.1v245h-60.1v-35.8c-13.9,28.8-52.2,42.7-79.5,43.2c-72.6,0.5-126.2-44.2-126.2-130.2
			c0-84.5,56.2-128.7,127.7-128.2c32.8,0,64.1,15.4,78,39.8V1020.3z M1230.1,1142.6c0,46.7,32.3,74.5,72.6,74.5
			c95.4,0,95.4-148.6,0-148.6C1262.4,1068.5,1230.1,1095.9,1230.1,1142.6z"/>
		<path id="XMLID_40_" d="M1666.9,1265.3v-128.2c0-37.3-20.4-65.6-59.1-65.6c-37.3,0-62.6,26.3-62.6,63.6v130.2H1485v-245.5h58.1
			v28.3c24.8-24.4,49.7-31.8,80.5-31.8c57.6,0,103.9,43.2,103.9,120.3v128.7H1666.9z"/>
	</g>
	<g id="XMLID_2_">
		<path id="XMLID_17_" d="M2406.4,1335.7h-449.8c-107.7,0-195.3-87.6-195.3-195.3c0-107.7,87.6-195.3,195.3-195.3h449.8
			c107.7,0,195.3,87.6,195.3,195.3C2601.6,1248.1,2514,1335.7,2406.4,1335.7z M1956.6,982.8c-86.9,0-157.6,70.7-157.6,157.6
			c0,86.9,70.7,157.6,157.6,157.6h449.8c86.9,0,157.6-70.7,157.6-157.6c0-86.9-70.7-157.6-157.6-157.6H1956.6z"/>
	</g>
	<g id="XMLID_4_">
		<g id="XMLID_105_">
			<path id="XMLID_111_" d="M1905.9,1318v-258h39.8v22.2c12.4-18,34-25.8,52.2-25.8c49.6,0,82.6,36.9,82.6,84.2
				c0,47-29.7,84.2-81.3,84.2c-17,0-42.1-5.2-53.5-22.9v116H1905.9z M2040.7,1140.7c0-25.1-17-45.7-45.7-45.7
				c-28.7,0-45.7,20.6-45.7,45.7s18.6,45.7,45.7,45.7C2022.1,1186.4,2040.7,1165.8,2040.7,1140.7z"/>
			<path id="XMLID_109_" d="M2228.5,1221v-84.2c0-24.5-13.4-43.1-38.9-43.1c-24.5,0-41.1,17.3-41.1,41.8v85.5H2109v-161.3h38.2v18.6
				c16.3-16,32.6-20.9,52.9-20.9c37.9,0,68.2,28.4,68.2,79v84.6H2228.5z"/>
			<path id="XMLID_106_" d="M2417.2,1197.8c-5.2,10.8-26.8,19.6-40.8,19.6c-50.3,0-81.6-30.7-81.6-81s36.6-81.6,81.6-81.6
				c12.7,0,29.7,4.9,40.8,12.4v-12.4h39.8v34v47.7v60.1c0,57.5-37.2,86.5-80.6,86.5c-42.4,0-75.1-23.2-81-59.8l38.9-7.5
				c2.6,18.3,20.6,30,41.8,30c19.9,0,40.8-15.3,40.8-48H2417.2z M2334.3,1136.4c0,28.1,18.9,44.7,42.1,44.7
				c22.9,0,41.8-17,41.8-44.7s-18.9-45.4-41.8-45.4C2353.2,1091,2334.3,1108.3,2334.3,1136.4z"/>
		</g>
	</g>
</g>
</svg>
